<svg width="22" height="24" viewBox="0 0 22 24" fill="none" xmlns="http://www.w3.org/2000/svg">
<path d="M19.352 0C20.7801 0 21.9319 1.13701 22 2.475V24L19.2809 21.727L17.7876 20.389L16.1583 18.9911L16.8389 21.1961H2.57997C1.15592 21.1961 0 20.1311 0 18.7201V2.48002C0 1.14199 1.15794 0.00299811 2.58507 0.00299811H19.3446L19.352 0ZM13.1376 5.68301H13.1071L12.9019 5.88302C15.0075 6.483 16.0264 7.42 16.0264 7.42C14.6693 6.752 13.4464 6.41798 12.2234 6.283C11.3397 6.14801 10.456 6.21899 9.70947 6.283H9.50631C9.0289 6.283 8.01303 6.483 6.65208 7.018C6.17772 7.22101 5.90552 7.35394 5.90552 7.35394C5.90552 7.35394 6.9233 6.35192 9.16605 5.81692L9.02894 5.68193C9.02894 5.68193 7.33063 5.61792 5.49723 6.95194C5.49723 6.95194 3.66383 10.0959 3.66383 13.972C3.66383 13.972 4.67956 15.712 7.46572 15.7781C7.46572 15.7781 7.87203 15.245 8.2834 14.776C6.71915 14.308 6.10973 13.372 6.10973 13.372C6.22704 13.4321 6.34066 13.4988 6.45 13.572H6.51094C6.5227 13.5723 6.53425 13.5752 6.54478 13.5804C6.55531 13.5856 6.56456 13.5929 6.57188 13.602V13.608C6.57906 13.6172 6.58827 13.6247 6.59883 13.6299C6.60939 13.6351 6.62102 13.6379 6.63282 13.638C6.96802 13.774 7.30322 13.908 7.57744 14.038C8.16397 14.2852 8.77746 14.4651 9.40578 14.574C10.3504 14.709 11.4332 14.774 12.6663 14.574C13.2758 14.4391 13.8852 14.307 14.4947 14.039C14.8909 13.839 15.3783 13.639 15.9136 13.3022C15.9136 13.3022 15.3042 14.2381 13.6739 14.7062C14.0091 15.1721 14.4814 15.7062 14.4814 15.7062C17.2686 15.6462 18.3514 13.9062 18.4123 13.9802C18.4123 10.1101 16.5688 6.96014 16.5688 6.96014C14.908 5.74612 13.354 5.70013 13.0796 5.70013L13.1364 5.68012L13.1376 5.68301ZM13.3082 10.096C14.0223 10.096 14.5982 10.696 14.5982 11.431C14.5982 12.171 14.0192 12.7711 13.3082 12.7711C12.5972 12.7711 12.0182 12.1711 12.0182 11.4371C12.0202 10.6971 12.6002 10.0991 13.3082 10.0991V10.096ZM8.6937 10.096C9.40472 10.096 9.97961 10.696 9.97961 11.431C9.97961 12.171 9.40065 12.7711 8.68963 12.7711C7.97861 12.7711 7.39964 12.1711 7.39964 11.4371C7.39964 10.6971 7.97861 10.0991 8.68963 10.0991L8.6937 10.096Z" fill="#23252B"/>
</svg>
