<svg width="26" height="24" viewBox="0 0 26 24" fill="none" xmlns="http://www.w3.org/2000/svg">
<path d="M23.3273 5.81426C23.3438 6.06942 23.3438 6.32462 23.3438 6.57978C23.3438 14.3623 17.9822 23.3298 8.18267 23.3298C5.16369 23.3296 2.35914 22.3636 0 20.6869C0.427271 20.7389 0.856932 20.7633 1.28678 20.7599C3.68511 20.7666 6.01557 19.8806 7.90226 18.2447C6.79036 18.2223 5.71255 17.8168 4.81936 17.0849C3.92617 16.353 3.26219 15.3311 2.92016 14.162C3.25308 14.2202 3.58948 14.2507 3.92653 14.2531C4.39971 14.2516 4.87084 14.1843 5.32879 14.0527C4.12208 13.7831 3.03708 13.0603 2.25813 12.007C1.47918 10.9537 1.05434 9.63498 1.05579 8.27483V8.20178C1.79414 8.65711 2.61943 8.91324 3.46439 8.94928C2.33337 8.11593 1.53288 6.8371 1.2263 5.37384C0.919723 3.91059 1.13018 2.37323 1.81471 1.07558C3.15317 2.89562 4.82293 4.38454 6.71572 5.44579C8.60852 6.50705 10.6821 7.11693 12.8019 7.2359C12.7164 6.79248 12.6722 6.34057 12.67 5.8872C12.671 4.7064 12.993 3.55315 13.5944 2.57701C14.1958 1.60086 15.0488 0.846842 16.0427 0.412713C17.0367 -0.0214167 18.1257 -0.115629 19.1687 0.142292C20.2117 0.400213 21.1605 0.998369 21.8921 1.8592C23.0855 1.60531 24.2298 1.12428 25.2741 0.437571C24.8768 1.798 24.0438 2.95153 22.9315 3.6818C24.0038 3.55429 25.0432 3.22612 26 2.77052C25.2704 3.94394 24.3669 4.97295 23.3275 5.81423L23.3273 5.81426Z" fill="#23252B"/>
</svg>
