<svg width="22" height="22" viewBox="0 0 22 22" fill="none" xmlns="http://www.w3.org/2000/svg">
<path d="M21.9441 6.46805C21.8926 5.29911 21.7035 4.49548 21.4326 3.79909C21.1494 3.06818 20.7167 2.40438 20.1623 1.85012C19.6079 1.29586 18.944 0.863327 18.2129 0.58016C17.5124 0.309361 16.7128 0.120339 15.5436 0.0687913C14.3657 0.0129143 13.9918 0 11.0043 0C8.01675 0 7.64278 0.0129143 6.46931 0.0644623C5.30014 0.11601 4.49636 0.305213 3.80001 0.575831C3.06417 0.851956 2.39794 1.28624 1.84838 1.84801C1.28984 2.39765 0.857228 3.06189 0.580383 3.79491C0.309457 4.49548 0.120363 5.29474 0.0688411 6.46369C0.0127713 7.64136 0 8.01525 0 11.0022C0 13.9891 0.0127713 14.363 0.0644748 15.5363C0.116033 16.7052 0.305273 17.5089 0.576089 18.2052C0.859282 18.9362 1.29189 19.6 1.84626 20.1542C2.40064 20.7085 3.06458 21.141 3.79565 21.4242C4.49636 21.695 5.29578 21.884 6.46513 21.9355C7.63852 21.9872 8.0126 22 11.0001 22C13.9876 22 14.3615 21.9872 15.5351 21.9355C16.7042 21.884 17.508 21.695 18.2044 21.4242C18.9357 21.1415 19.5999 20.7091 20.1543 20.1548C20.7088 19.6004 21.1413 18.9364 21.4241 18.2052C21.6947 17.5047 21.884 16.7053 21.9355 15.5363C21.9871 14.363 22 13.9891 22 11.0022C22 8.01529 21.9956 7.64143 21.9441 6.46812L21.9441 6.46805ZM19.9626 15.4503C19.9153 16.5247 19.7347 17.1049 19.5842 17.4917C19.4008 17.9662 19.1202 18.3971 18.7604 18.7568C18.4006 19.1166 17.9696 19.3971 17.495 19.5804C17.1081 19.7309 16.5235 19.9115 15.4532 19.9585C14.2925 20.0102 13.9445 20.023 11.0086 20.023C8.07263 20.023 7.72017 20.0102 6.56377 19.9585C5.48913 19.9112 4.90882 19.7309 4.52197 19.5804C4.04443 19.4052 3.61253 19.1246 3.25834 18.7595C2.89411 18.4046 2.6136 17.973 2.43724 17.4961C2.28678 17.1093 2.10613 16.5248 2.05908 15.4547C2.00738 14.2942 1.99461 13.9461 1.99461 11.0107C1.99461 8.07539 2.00738 7.72299 2.05908 6.567C2.10638 5.49257 2.28678 4.91237 2.43724 4.5256C2.61248 4.04698 2.89485 3.61475 3.26275 3.26193C3.61761 2.89769 4.04935 2.61728 4.52645 2.44116C4.91333 2.29074 5.49793 2.11012 6.56825 2.06283C7.72894 2.01128 8.07711 1.99837 11.0129 1.99837C13.9532 1.99837 14.3013 2.01128 15.4577 2.06283C16.5323 2.11012 17.1126 2.29063 17.4995 2.44116C17.977 2.61629 18.409 2.89684 18.7632 3.26193C19.1275 3.61681 19.4081 4.04846 19.5844 4.52545C19.7349 4.91226 19.9156 5.49675 19.9629 6.56686C20.0144 7.72732 20.0273 8.07524 20.0273 11.0106C20.0273 13.946 20.0144 14.2898 19.9629 15.4502L19.9626 15.4503Z" fill="#23252B"/>
<path d="M11.0041 5.35107C9.88609 5.35109 8.79323 5.68255 7.86367 6.30356C6.93412 6.92456 6.20962 7.80721 5.7818 8.83988C5.35397 9.87256 5.24204 11.0089 5.46015 12.1052C5.67827 13.2014 6.21663 14.2084 7.00716 14.9988C7.79769 15.7892 8.80488 16.3274 9.90138 16.5455C10.9979 16.7636 12.1344 16.6516 13.1673 16.2239C14.2002 15.7961 15.083 15.0718 15.7041 14.1424C16.3252 13.213 16.6567 12.1204 16.6568 11.0026C16.6564 9.50384 16.0607 8.06656 15.0007 7.00676C13.9407 5.94697 12.5031 5.35143 11.0041 5.35107ZM11.0041 14.6686C10.2789 14.6685 9.56996 14.4535 8.96698 14.0507C8.364 13.6479 7.89404 13.0753 7.61653 12.4054C7.33902 11.7356 7.26642 10.9985 7.40791 10.2873C7.5494 9.5762 7.89863 8.92299 8.41144 8.4103C8.92424 7.89761 9.57759 7.54847 10.2889 7.40703C11.0001 7.26559 11.7374 7.3382 12.4074 7.61567C13.0774 7.89315 13.65 8.36303 14.0529 8.9659C14.4558 9.56878 14.6708 10.2776 14.6708 11.0026C14.6707 11.9749 14.2843 12.9072 13.5967 13.5947C12.9091 14.2822 11.9765 14.6684 11.0041 14.6686Z" fill="#23252B"/>
<path d="M18.2001 5.12608C18.2001 5.38704 18.1227 5.64213 17.9777 5.85911C17.8327 6.07609 17.6266 6.24521 17.3855 6.34508C17.1443 6.44494 16.879 6.47108 16.623 6.42017C16.367 6.36927 16.1319 6.24361 15.9473 6.05909C15.7627 5.87457 15.637 5.63948 15.5861 5.38353C15.5352 5.12759 15.5613 4.8623 15.6612 4.6212C15.761 4.38011 15.9302 4.17403 16.1472 4.02904C16.3642 3.88405 16.6193 3.80666 16.8804 3.80664C17.0537 3.80663 17.2253 3.84075 17.3854 3.90706C17.5455 3.97336 17.691 4.07055 17.8136 4.19307C17.9361 4.31559 18.0333 4.46105 18.0997 4.62114C18.166 4.78122 18.2001 4.9528 18.2001 5.12608Z" fill="#23252B"/>
</svg>
